<svg xmlns="http://www.w3.org/2000/svg" width="16" height="15" viewBox="0 0 16 15"><defs><clipPath id="mxu5a"><path fill="#fff" d="M7.5 1a6.5 6.5 0 1 1 0 13 6.5 6.5 0 0 1 0-13z"/></clipPath></defs><g><g><path d="M6.904 6.11a1 1 0 0 1 1.414 0l7.071 7.072a1 1 0 1 1-1.414 1.414l-7.071-7.07a1 1 0 0 1 0-1.415z"/><path fill="none" d="M6.904 6.11a1 1 0 0 1 1.414 0l7.071 7.072a1 1 0 1 1-1.414 1.414l-7.071-7.07a1 1 0 0 1 0-1.415z"/></g><g><path fill="#fff" d="M7.5 1a6.5 6.5 0 1 1 0 13 6.5 6.5 0 0 1 0-13z"/><path fill="none" stroke="#010101" stroke-linecap="round" stroke-linejoin="round" stroke-miterlimit="20" stroke-width="2" d="M7.5 1a6.5 6.5 0 1 1 0 13 6.5 6.5 0 0 1 0-13z" clip-path="url(&quot;#mxu5a&quot;)"/><path fill="none" d="M7.5 1a6.5 6.5 0 1 1 0 13 6.5 6.5 0 0 1 0-13z"/></g></g></svg>